<svg viewBox="0 0 1440 1440">
    <defs>
        <radialGradient id="a" cx="0.5" cy="0.5" r="0.475" gradientTransform="translate(0.019 0) scale(1.112 1)" gradientUnits="objectBoundingBox">
            <stop offset="0.048" stop-color="#2b1c0b" />
            <stop offset="0.249" stop-color="#986f2c" />
            <stop offset="0.319" stop-color="#725221" />
            <stop offset="0.401" stop-color="#38260f" />
            <stop offset="0.52" stop-color="#2b1c0b" />
            <stop offset="0.59" stop-color="#795825" />
            <stop offset="0.87" stop-color="#6e5021" />
            <stop offset="1" stop-color="#af7d35" />
        </radialGradient>
        <clipPath id="c">
            <path d="M961.546,287.287c-.007-.007-.007-.017-.014-.024-6.7-7.709-22.03-7.412-12.958-49.371s2.268-63.127.378-72.955-7.938-20.413-19.656-22.3-7.618,10.911-7.182,21.169c.394,9.258-7.05,70.562-58.969,63.127-68.087-9.752-113.745-10.355-144.23-7.721C524.178,233.1,370.459,397.263,370.459,597.754c0,209.6,168,379.518,375.243,379.518s375.243-169.917,375.243-379.518A380.33,380.33,0,0,0,961.546,287.287ZM746.017,884.03C589.551,884.03,462.711,755,462.711,595.836s126.84-288.194,283.306-288.194,283.306,129.029,283.306,288.194S902.482,884.03,746.017,884.03Z" fill="url(#a)" />
        </clipPath>
        <linearGradient id="d" y1="0.5" x2="1" y2="0.5" gradientUnits="objectBoundingBox">
            <stop offset="0" stop-color="#2b1c0b" />
            <stop offset="0.217" stop-color="#986f2c" />
            <stop offset="0.466" stop-color="#986f2c" />
            <stop offset="0.665" stop-color="#835f26" />
            <stop offset="0.808" stop-color="#795825" />
            <stop offset="1" stop-color="#2b1c0b" />
        </linearGradient>
        <clipPath id="f">
            <rect width="1440" height="1440" />
        </clipPath>
    </defs>
    <g id="e" clip-path="url(#f)">
        <rect width="1440" height="1440" fill="#fff" />
        <rect width="1440.486" height="1443.525" transform="translate(0 0)" stroke="#fff" stroke-miterlimit="10" stroke-width="1" />
        <path d="M747.314,1043.309c13.446,7.737,38.948,34.673,135.844,30.873-29.449,15.674-79.552,24.437-142.725,16.838C737.109,1064.9,740.726,1055.109,747.314,1043.309Z" fill="#ed1c24" />
        <path d="M804.924,1054.637s-15.624,34.776-14.868,90.217,12.6,98.03,12.6,98.03,24.7,1.764,45.361-12.853C832.9,1203.571,801.9,1117.89,804.924,1054.637Z" fill="#ed1c24" />
        <path d="M1030.468,1110.023s-13.086,23.421-12.58,60.759a289.043,289.043,0,0,0,8.439,66.021s16.539,1.188,30.378-8.656C1046.579,1210.327,1028.442,1152.623,1030.468,1110.023Z" fill="#ed1c24" />
        <path d="M1022.519,1118c64.146,2.417,65.9,70.737,65.9,70.737s-8.5,3.843-25.483,3.734C1061.4,1172.257,1069.97,1152.925,1022.519,1118Z" fill="#ed1c24" />
        <path d="M1079.616,1193.375c-3.5-64.082,47.253-78.952,47.253-78.952s13.68,10.27,17.635,26.786C1133.218,1141.911,1102.186,1138.949,1079.616,1193.375Z" fill="#ed1c24" />
        <path d="M1132.806,1109.817s-13.928,22.931-14.779,60.263a289.1,289.1,0,0,0,6.035,66.283s16.486,1.788,30.674-7.547C1145.263,1210.64,1129.234,1152.315,1132.806,1109.817Z" fill="#ed1c24" />
        <path d="M1186.206,1236.848s12.952-23.578,14.112-60.9-8.714-63.31-8.714-63.31-16.47-1.924-30.735,7.292C1170.19,1138.183,1190.13,1194.381,1186.206,1236.848Z" fill="#ed1c24" />
        <path d="M917.633,1112.755c-15.362,7.759-33.341,25.61-33.341,53.771,0,32.32,14.062,64.072,54.437,72.611,10.056-10.652,12.569-15.728,16.893-26.73C906.293,1211.887,891.928,1159.533,917.633,1112.755Z" fill="#ed1c24" />
        <path d="M241,1066.309c-20.588,12.936-43.531,40.415-39.824,80.032,4.254,45.467,28.216,88.284,86.137,94.981,12.745-16.308,15.612-23.78,20.247-39.827C238.093,1207.258,210.995,1135.5,241,1066.309Z" fill="#ed1c24" />
        <path d="M1259,1112.755c-15.362,7.759-33.341,25.61-33.341,53.771,0,32.32,14.062,64.072,54.437,72.611,10.056-10.652,12.569-15.728,16.893-26.73C1247.664,1211.887,1233.3,1159.533,1259,1112.755Z" fill="#ed1c24" />
        <path d="M957.512,1230.031c15.362-7.758,36.667-31.563,36.667-59.724,0-32.32-19.36-60.247-59.734-68.785-10.056,10.651-12.569,15.728-16.894,26.73C970.365,1127.214,989.643,1182.4,957.512,1230.031Z" fill="#ed1c24" />
        <path d="M1298.641,1230.031c15.361-7.758,36.666-31.563,36.666-59.724,0-32.32-19.36-60.247-59.734-68.785-10.056,10.651-12.569,15.728-16.893,26.73C1311.493,1127.214,1330.771,1182.4,1298.641,1230.031Z" fill="#ed1c24" />
        <ellipse cx="29.466" cy="16.002" rx="29.466" ry="16.002" transform="translate(1141.48 1056.149)" fill="#fff" />
        <path d="M355.149,1111.473s-10.564,20.883-11.414,58.215,8.723,66.2,8.723,66.2,18.04-.04,32.228-9.375C375.213,1208.339,351.577,1153.971,355.149,1111.473Z" fill="#ed1c24" />
        <path d="M426.437,1234.908s10.182-21.072,10.354-58.413a270.837,270.837,0,0,0-7.721-66.032s-18.522-1.067-33.17,8.572C405.7,1137.037,429.236,1192.352,426.437,1234.908Z" fill="#ed1c24" />
        <path d="M432.035,1172.668c-33.769-8.064-69.732-3.76-69.732-3.76s3.462,12.73,14.754,25.627C391.958,1182.04,400.273,1180.328,432.035,1172.668Z" fill="#ed1c24" />
        <path d="M488.286,1109.119s-12.225,19.956-16.1,57.1,3.318,66.691,3.318,66.691a88.391,88.391,0,0,0,28.685-9.8C496.22,1204.218,481.275,1151.186,488.286,1109.119Z" fill="#ed1c24" />
        <path d="M485.812,1160.628c26.682,12.941,55.047,15.683,55.047,15.683a29.225,29.225,0,0,0-1.549-23.1C524.581,1160.889,513.714,1160.084,485.812,1160.628Z" fill="#ed1c24" />
        <path d="M483.983,1219.75c27.038,12.179,55.469,14.114,55.469,14.114s2.582-11.628-2.2-23.047C522.743,1218.911,511.858,1218.415,483.983,1219.75Z" fill="#ed1c24" />
        <path d="M479.4,1113.211c33.448-9.305,69.545-6.331,69.545-6.331s-2.99,12.849-13.8,26.154C519.792,1121.1,511.42,1119.694,479.4,1113.211Z" fill="#ed1c24" />
        <path d="M239.551,1086.975c25.111-36.525,73.226-35.647,73.226-35.647s-8.232,13.237-11.765,25.287C287.691,1075.642,270.239,1072.875,239.551,1086.975Z" fill="#ed1c24" />
        <ellipse cx="89.879" cy="48.385" rx="89.879" ry="48.385" transform="translate(663.645 444.535)" fill="#ed1c24" />
        <path d="M769.269,620.714q-8.169,0-16.449-.294c-196.8-7.045-275.57-79.493-313.425-114.31l-4.04-3.7,26.487-29.05,4.166,3.82c34.383,31.625,105.936,97.432,288.217,103.959,162.186,5.8,290.377-86.048,291.653-86.975L1069,525.953C1063.517,529.941,936.693,620.714,769.269,620.714Z" fill="#af7d35" />
        <path d="M766.085,804.59q-6.6,0-13.431-.125c-92.889-1.725-162.256-21.787-212.309-39.074a19.657,19.657,0,0,1,12.834-37.16c47.313,16.342,112.829,35.306,200.208,36.927,125.261,2.352,185.054-30.035,185.642-30.362a19.656,19.656,0,1,1,19.089,34.366C955.428,770.657,892.821,804.59,766.085,804.59Z" fill="#af7d35" />
        <path d="M648.2,436.784a19.656,19.656,0,0,1-12.386-34.928c25.137-20.376,136.318-80.45,220.939-2.181a19.656,19.656,0,0,1-26.7,28.858c-27.73-25.652-62.448-34.156-103.172-25.285-34.464,7.51-61.081,24.9-66.322,29.152A19.573,19.573,0,0,1,648.2,436.784Z" fill="#af7d35" />
        <path d="M756.044,916.286h-.038a21.168,21.168,0,0,1-21.13-21.205l.5-284.26a21.17,21.17,0,0,1,21.168-21.132h.039a21.169,21.169,0,0,1,21.13,21.206l-.5,284.262A21.169,21.169,0,0,1,756.044,916.286Z" fill="#af7d35" />
        <path d="M1245.025,336.366c-3.811-3.185-7.939-7.533-13.457-5.417a170.905,170.905,0,0,1-60.411,11.673c7.878,7.507,7.8,17.03,12.144,24.27,4.3,7.17,1.947,27.949,20.18,11.294,2.091-1.91,6.1-1.9,9.28-2.4,8.652-1.354,17.337-2.5,28.7-4.114-8.8-9.817.363-17.577,1.148-26.279C1242.905,342.075,1249.965,340.494,1245.025,336.366ZM1200.3,371.09c-10.436-.309-7.3-12.573-10.845-19.061-4.027-7.379,4.388-5.253,6.945-5.884,10.19-2.516,20.631-4.013,31.792-6.034C1228.458,364.465,1222.489,371.746,1200.3,371.09Z" fill="#fff" stroke="#000" stroke-miterlimit="10" stroke-width="1" />
        <path d="M1193.114,319.587c14.693-3.97,29.687-5.823,44.711-7.714,4.605-.579,12.117,1.542,12.238-5.057.1-5.727-7.148-5.806-12.08-6.471-2.263-.3-4.941-1.071-6.806-.235-17.439,7.823-36.224,11.448-55.052,16.712C1181.7,324.261,1187.831,321.014,1193.114,319.587Z" fill="#fff" stroke="#000" stroke-miterlimit="10" stroke-width="1" />
        <path d="M1281.6,421.934c5.935-2.566,5.616-11.024,7.1-17.191.625-2.6.182-5.5-.017-8.242-2.581-35.55-1.574-71.156-1.265-106.734a34.8,34.8,0,0,0-3.573-16.812c-4.324-5.966-9.937-5.18-15.75-3.344-.219.063-.44.133-.662.213-9.586-.228-17.875,5.17-27.156,6.262-2.322-.326-4.727-.029-5.495,2.348-.691,2.142,1.161,2.949,3.1,2.8,3.915-.307,7.991.066,11.446-2.43h0c2.3-.073,4.675.186,6.9-.274,13.66-2.826,17.236,2.838,16.7,16.188-1.024,25.379-.281,50.833-.093,76.255.206,27.879.294,27.878-27.564,24.876,7.94,5.947,15.118,11.584,22.581,16.814,4.646,3.257,7.332,12.047,13.744,9.275" fill="#fff" stroke="#000" stroke-miterlimit="10" stroke-width="1" />
        <path d="M1206.706,286.343a10.528,10.528,0,0,0,9.036-2.034h0c4.574-1.006,10.439,1.705,13.954-4.527-6.627-2.934-11.857.014-17.22,1.713h0l-7.653.057q-.628,1.033-1.245,2.075h0c-12.985.476-26.307-1.257-38.28,5.848C1179.759,297.133,1192.912,287.494,1206.706,286.343Z" fill="#fff" stroke="#000" stroke-miterlimit="10" stroke-width="1" />
        <path d="M1293.138,158.193c-2.615-.839-6.2-2.5-7.988-1.459-13.553,7.882-22.689,1.594-30.9-8.547-3.061-.13-8.89-2.982-3.772,4.951,5.251,8.138,2.1,11.2-6.751,12.15-10.062,1.078-20,3.283-30,5q.09-.641.192-1.267c.119-.079.239-.158.356-.238.034-.091.069-.182.1-.273q-.214.148-.426.306c2.32-13.948,9.209-23.385,24.977-24.055l.008,0,12.618-.018,2.48,0,.524-.262,3.758-1.881.009,0c5.033.371,10.061.951,15.1,1.056,5.253.11,13.9,3.087,14.5-3.194.742-7.753-8.868-7.447-14.771-9.187-3.167-.934-6.083.69-9.192,1.5-13.081,3.416-26.386,5.973-39.741,8.874-.966-14.831,7.469-17.817,18.1-18.249,6.461-.262,12.929-.34,19.394-.475,2.762-.058,6.053.266,6.629-3.281.519-3.192-2.235-4.3-4.76-5.8-8.845-5.256-15.739,2.044-23.567,2.88-3.059.327-8.948,5.071-9.757-2.166-.471-4.217,1.137-9.152,7.555-9.457,7.825-.373,15.653-1.052,23.426-2.027,4.071-.51,11.053,2.793,11.316-3.823.239-6.014-6.5-6.628-11.642-7.222-9.01-1.041-16.26,6.083-25.839,5.355-.607-5.019,1.055-10.889-4.66-14.6-3.576-2.32-7.118-5.684-11.2-3.726-5.154,2.472-.152,6.305.053,9.547.534,8.447.475,15.95-11.656,15.033-3.859-.292-7.91,1.957-11.873,3.043h0c-3.618-.432-7.57-.715-9.406,2.961-.721,1.445,1.993,2.287,3.863,2.017h0c5.943,1.311,11.66.513,17.444-1.257,3-.918,7.98-3.3,8.575,1.8.436,3.732.448,9.586-6.212,10.539s-13.246,2.378-20.461,3.705c6.677,10.218,14.959.393,22.778,3.465-4.037,26.873-30.822,13.815-43.661,25.1,12.058,9.046,23.421-5.35,35.673-.959-7.942,21.618-20.468,40.041-35.273,57.243,19.476-8.9,30.654-26,43.52-41.35l.085-.076c1.01,8.1,6.938,5.7,11.679,5.245,8.643-.823,20.83-5.872,25.017-2.038,5.86,5.366,1.774,17.425,1.879,26.6.267,23.133.089,23.125-22.177,23.332-.527,0-1.045.944-1.8,1.668,3.453,2.26,6.826,4.428,10.159,6.656,11.774,7.868,17.538,6.509,23.566-6.3,4.112-8.739,1.62-18.233,1.721-27.351.328-29.354.117-29.257,29.361-27.994,4.1.177,10.615,3.233,11.676-3.295C1304.88,159.459,1297.686,159.652,1293.138,158.193Z" fill="#fff" stroke="#000" stroke-miterlimit="10" stroke-width="1" />
        <path d="M1224.514,210.833c2.749-2.377,2.159-5.894.887-8.915-4.466-10.6-14.354-10.78-27.2-13.879,7.633,8.8,12.837,14.878,18.135,20.873C1218.564,211.428,1221.374,213.548,1224.514,210.833Z" fill="#fff" stroke="#000" stroke-miterlimit="10" stroke-width="1" />
        <path d="M577.888,1211.411c44.333,29.256,91.578,15.383,91.578,15.383s-9.31-17.948-15.763-26.944C639.645,1209.425,613.554,1219.838,577.888,1211.411Z" fill="#ed1c24" />
        <path d="M652.712,1118.624c-33.8-25.372-74.824-13.864-74.824-13.864s6.767,14.507,11.4,24.465C600.677,1126.642,624.332,1110.444,652.712,1118.624Z" fill="#ed1c24" />
        <path d="M585.312,1220.505c8.739-65.3,62.7-108.033,62.7-108.033s20.243,11.56,22.958,22.2C640.292,1144.658,613.345,1174.476,585.312,1220.505Z" fill="#ed1c24" />
        <path d="M961.546,287.287c-.007-.007-.007-.017-.014-.024-6.7-7.709-22.03-7.412-12.958-49.371s2.268-63.127.378-72.955-7.938-20.413-19.656-22.3-7.618,10.911-7.182,21.169c.394,9.258-7.05,70.562-58.969,63.127-68.087-9.752-113.745-10.355-144.23-7.721C524.178,233.1,370.459,397.263,370.459,597.754c0,209.6,168,379.518,375.243,379.518s375.243-169.917,375.243-379.518A380.33,380.33,0,0,0,961.546,287.287ZM746.017,884.03C589.551,884.03,462.711,755,462.711,595.836s126.84-288.194,283.306-288.194,283.306,129.029,283.306,288.194S902.482,884.03,746.017,884.03Z" fill="url(#a)" />
        <g clip-path="url(#c)">
            <path d="M505.488,317.547C422.445,422.88,348.14,684.94,602.607,856.4c14.834,9.995,174.857,76.524,327.815-19.626,92.75-58.3,136.665-128.164,152.148-219.652s-14.075-251.643-98.526-315.836-12.668-60.841-11.26-63.925,56.3-90.349,56.3-90.349L884.11,116.041l-43.633,28.151s-139.833,41.449-146.382,43.779C605.381,219.521,516.467,300.9,505.488,317.547Z" fill="url(#d)" />
        </g>
    </g>
</svg>
